# xmcd CD database file
#
# Track frame offsets:
#	150
#	13293
#	28107
#	41186
#	54178
#	70256
#	82762
#	95936
#	109704
#	123252
#	136517
#	149320
#
# Disc length: 2202 seconds
#
# Revision: 0
# Processed by: cddbd v1.5.2PL0 Copyright (c) Steve Scherf et al.
# Submitted via: Feurio! 1.68 - http://www.feurio.com
#
DISCID=9f08980c
DTITLE=Trucks aus dem Zillertal - Hör doch einfach Radio
DYEAR=1900
DGENRE=Country
TTITLE0=Hör doch einfach Radio
TTITLE1=Gipsy Women
TTITLE2=Es gibt keine Frau
TTITLE3=Unterwegs
TTITLE4=Nochmal mit dir
TTITLE5=Schau nur nach vorne
TTITLE6=Marie
TTITLE7=Ein Wort, das zählt
TTITLE8=Wir lassen uns nichts sagen
TTITLE9=Jeder Tag
TTITLE10=Ich lieb' dich noch mehr
TTITLE11=Wieder einmal
EXTD=
EXTT0=
EXTT1=
EXTT2=
EXTT3=
EXTT4=
EXTT5=
EXTT6=
EXTT7=
EXTT8=
EXTT9=
EXTT10=
EXTT11=
PLAYORDER=
